<?xml version="1.0" encoding="UTF-8" standalone="no"?>
<svg
   xmlns:dc="http://purl.org/dc/elements/1.1/"
   xmlns:cc="http://creativecommons.org/ns#"
   xmlns:rdf="http://www.w3.org/1999/02/22-rdf-syntax-ns#"
   xmlns:svg="http://www.w3.org/2000/svg"
   xmlns="http://www.w3.org/2000/svg"
   xmlns:sodipodi="http://sodipodi.sourceforge.net/DTD/sodipodi-0.dtd"
   xmlns:inkscape="http://www.inkscape.org/namespaces/inkscape"
   version="1.1"
   id="svg2"
   xml:space="preserve"
   width="2493.3333"
   height="2148"
   viewBox="0 0 2493.3333 2148"
   sodipodi:docname="GIU NIC 1012-20.eps"><metadata
     id="metadata8"><rdf:RDF><cc:Work
         rdf:about=""><dc:format>image/svg+xml</dc:format><dc:type
           rdf:resource="http://purl.org/dc/dcmitype/StillImage" /></cc:Work></rdf:RDF></metadata><defs
     id="defs6" /><sodipodi:namedview
     pagecolor="#ffffff"
     bordercolor="#666666"
     borderopacity="1"
     objecttolerance="10"
     gridtolerance="10"
     guidetolerance="10"
     inkscape:pageopacity="0"
     inkscape:pageshadow="2"
     inkscape:window-width="640"
     inkscape:window-height="480"
     id="namedview4" /><g
     id="g10"
     inkscape:groupmode="layer"
     inkscape:label="ink_ext_XXXXXX"
     transform="matrix(1.3333333,0,0,-1.3333333,0,2148)"><g
       id="g12"
       transform="scale(0.1)"><path
         d="m 15408.4,7895.16 c 3077.4,-1776.92 3093.7,-4657.62 36.4,-6434.26 -3057,-1776.49 -8030.39,-1776.49 -11107.73,0.12 -3076.91,1776.4 -3093.12,4657.22 -36.13,6433.71 3057.22,1776.72 8030.76,1776.72 11107.46,0.43"
         style="fill:#ffffff;fill-opacity:1;fill-rule:nonzero;stroke:none"
         id="path14" /><path
         d="m 13776.5,12784.3 -3070.6,-1756.1 v 527.4 L 6355.78,14043.2 2005.47,11555.6 2540.51,11168.5 2365.9,10148.3 V 6757.38 l 1091.76,-624.29 539.37,-308.4 306.41,-175.28 452.07,-2531.79 V 2011.6 L 8270.39,1.48047 11785.3,2011.6 v 1101.49 l 1991.2,-1138.6 3740.4,2138.71 v 6532 l -3740.4,2139.1"
         style="fill:#38393a;fill-opacity:1;fill-rule:nonzero;stroke:none"
         id="path16" /><path
         d="m 6245.16,8346.8 1976.83,291.6 1.41,-0.7 v 0.39 l 101.17,-15 1346.13,777.11 v -975.79 l 374.5,-55.19 V 10630.6 L 6245.16,8457.38 V 8346.8"
         style="fill:#e2aa77;fill-opacity:1;fill-rule:nonzero;stroke:none"
         id="path18" /><path
         d="m 3809.77,6349.22 316.28,-181.02 325.71,275.71 z"
         style="fill:#e1955c;fill-opacity:1;fill-rule:nonzero;stroke:none"
         id="path20" /><path
         d="m 3424.1,6860.12 -558.4,322.69 0.35,90.47 558.33,-322.38 z m -712.89,797.38 c -0.16,-90.7 -59.84,-131.29 -136.33,-97.89 l 6.96,-199.81 72.34,-41.6 22.85,-44.92 -243.16,140.43 22.85,18.09 72.3,-41.6 8.25,191.09 c -76.57,54.8 -135.67,164.02 -135.47,254.73 l 0.66,240.46 158.99,-91.6 65.27,-138.79 -10.27,-3.59 58.32,-86.72 -25.51,66.52 25.7,1.68 -33.75,69.22 27.15,30.08 43.28,-25.08 0.16,-1.72 z m 281.8,96.72 97.19,-242.11 -40.47,23.28 -0.9,-335.78 -114.45,66.09 1.17,335.78 -40.51,23.21 z m 307.26,-177.42 97.07,-242 -40.46,23.48 -0.86,-335.9 -114.42,65.9 0.94,335.94 -40.27,22.97 z m 2944.89,770 v 110.58 L 2125.59,10813.3 v -3501 l 1127.14,-644.6 2916.96,1667.89 75.47,11.21"
         style="fill:#e1955c;fill-opacity:1;fill-rule:nonzero;stroke:none"
         id="path22" /><path
         d="M 9670.7,9400.2 8324.57,8623.09 9670.7,8424.41 Z"
         style="fill:#eeba8d;fill-opacity:1;fill-rule:nonzero;stroke:none"
         id="path24" /><path
         d="M 6245.16,9658.01 V 8457.38 l 3800.04,2173.22 v 695.8 l 691.5,395.5 v 544.4 L 6245.16,9697.38 v -39.37"
         style="fill:#e17a52;fill-opacity:1;fill-rule:nonzero;stroke:none"
         id="path26" /><path
         d="m 4613.98,10769.4 -2616.64,1496.9 4247.82,2429.3 1470.15,-840.8 0.63,0.4 1316.79,-753.3 -0.5,-0.5 1046.17,-598.5 414.3,-236.6 -2813.44,-1609.6 -1434.1,-819.9 -1434.34,819.9 z M 10736.8,12266.3 6245.16,14834.8 1753.48,12266.3 6245.16,9697.38 10736.8,12266.3"
         style="fill:#924e34;fill-opacity:1;fill-rule:nonzero;stroke:none"
         id="path28" /><path
         d="m 4685.74,10835.1 -2501.36,1431 4060.74,2322.6 2030,-1161.3 0.35,0.2 1634.06,-935.1 396.07,-226.4 -2689.43,-1538.6 -1371.05,-783.63 -1371.14,783.63 z m 2993.48,-178.4 2813.48,1609.4 -414.3,236.7 -1046.21,598.6 h -0.2 l -663.12,379.8 h -0.28 l -653.32,373.6 -1470.15,840.7 -4247.78,-2429.4 2616.64,-1496.8 196.84,-112.6 1434.3,-819.86 1434.1,819.86"
         style="fill:#cc6f4a;fill-opacity:1;fill-rule:nonzero;stroke:none"
         id="path30" /><path
         d="m 7616.17,10727.5 2689.53,1538.7 -396.13,226.3 -1634.06,935.2 -0.35,-0.4 -2030,1161.4 -4060.78,-2322.5 2501.4,-1431 188.2,-107.7 1371.18,-783.71 1371.01,783.71"
         style="fill:#7e322b;fill-opacity:1;fill-rule:nonzero;stroke:none"
         id="path32" /><path
         d="m 6245.16,9658.01 v 39.37 L 1753.48,12266.3 v -1240 l 372.11,-213 4119.57,-2355.92 v 1200.63"
         style="fill:#cc6f4a;fill-opacity:1;fill-rule:nonzero;stroke:none"
         id="path34" /><path
         d="m 8368.59,13481.2 h 0.28 l 663.08,-379.8 h 0.2 l 0.51,0.3 -1316.76,753.4 -0.67,-0.3 653.36,-373.6"
         style="fill:#f1ddb8;fill-opacity:1;fill-rule:nonzero;stroke:none"
         id="path36" /><path
         d="m 2865.7,7182.81 558.4,-322.69 0.28,90.78 -558.33,322.38 -0.35,-90.47"
         style="fill:#582219;fill-opacity:1;fill-rule:nonzero;stroke:none"
         id="path38" /><path
         d="m 2934.38,7265.7 114.45,-66.09 0.9,335.78 40.47,-23.28 -97.19,242.11 -97.97,-129.53 40.51,-23.21 -1.17,-335.78"
         style="fill:#582219;fill-opacity:1;fill-rule:nonzero;stroke:none"
         id="path40" /><path
         d="m 3241.6,7088.28 114.42,-65.9 0.86,335.9 40.46,-23.48 -97.07,242 -98,-129.61 40.27,-22.97 -0.94,-335.94"
         style="fill:#582219;fill-opacity:1;fill-rule:nonzero;stroke:none"
         id="path42" /><path
         d="m 2668.36,7923.28 -27.15,-30.08 33.75,-69.22 -25.7,-1.68 25.51,-66.52 -58.32,86.72 10.27,3.59 -65.27,138.79 -158.99,91.6 -0.66,-240.46 c -0.2,-90.71 58.9,-199.93 135.47,-254.73 l -8.25,-191.09 -72.3,41.6 -22.85,-18.09 243.16,-140.43 -22.85,44.92 -72.34,41.6 -6.96,199.81 c 76.49,-33.4 136.17,7.19 136.33,97.89 l 0.59,238.98 -0.16,1.72 -43.28,25.08"
         style="fill:#582219;fill-opacity:1;fill-rule:nonzero;stroke:none"
         id="path44" /><path
         d="m 13593.6,3018.52 -523.3,301.99 0.3,85.08 523.3,-302.39 z m -403.9,837.69 90.9,-226.8 -37.7,21.61 -1,-314.54 -107.4,61.41 1.2,315.12 -38.1,21.79 z m 287.9,-166.41 90.9,-226.71 -37.9,21.79 -0.7,-314.88 -107.3,62.11 1,314.49 -38.1,21.99 z m -3432.4,7636.6 V 8369.22 l 230.7,-34.02 3629,-2075.71 v -98.2 l -1911.8,282.42 1910.2,-1616.8 v -98.71 l -1132.4,-647.5 14.1,-8.2 61.1,-130.2 -9.7,-2.81 54.8,-81.68 -23.9,62.39 24.1,1.52 -31.5,65.08 25.3,28.08 40.6,-23.59 0.1,-1.8 -0.6,-223.71 c -0.3,-85.27 -55.9,-123.16 -127.8,-91.99 l 6.6,-187.38 67.8,-39.03 21.4,-41.79 -228,131.52 21.4,17.19 68,-39.1 7.5,179.02 c -71.7,51.29 -127.1,153.79 -126.8,238.87 l 0.2,70.19 -784.5,-448.59 v -5.2 l 2056,-1175.7 v 6744.02 l -3861.9,2208.59"
         style="fill:#e2aa77;fill-opacity:1;fill-rule:nonzero;stroke:none"
         id="path46" /><path
         d="m 11510.7,12044.7 -0.4,0.5 1132.3,647.5 0.6,-0.5 1264,722.9 3651.9,-2089 -2418.8,-1383.4 -1233.1,-705.04 -1233.2,705.04 -2419,1383.4 1255.8,718.6 z m 2396.5,-2926.85 3861.9,2208.65 -3861.9,2208.6 -3170.4,-1813.2 -691.6,-395.4 3862,-2208.65"
         style="fill:#e3be7a;fill-opacity:1;fill-rule:nonzero;stroke:none"
         id="path48" /><path
         d="m 15726.4,10286 6.7,-3.9 -592.9,-339.44 2418.9,1383.44 -3652,2089 -1263.9,-723 3655.9,-2078.5 -572.7,-327.6"
         style="fill:#e19760;fill-opacity:1;fill-rule:nonzero;stroke:none"
         id="path50" /><path
         d="m 10254.9,11325.9 2419,-1383.28 1233.1,-705.08 1233.1,705.08 592.9,339.38 -6.7,3.9 -0.3,-0.1 -559.2,-319.82 -3656.1,2078.62 -1255.8,-718.7"
         style="fill:#e2aa77;fill-opacity:1;fill-rule:nonzero;stroke:none"
         id="path52" /><path
         d="M 13907.2,9117.85 V 2373.83 l 3861.9,2208.28 V 11326.5 L 13907.2,9117.85"
         style="fill:#e1955c;fill-opacity:1;fill-rule:nonzero;stroke:none"
         id="path54" /><path
         d="m 13070.3,3320.51 523.3,-301.99 0.3,84.68 -523.3,302.39 -0.3,-85.08"
         style="fill:#582219;fill-opacity:1;fill-rule:nonzero;stroke:none"
         id="path56" /><path
         d="m 13134.5,3397.89 107.4,-61.41 1,314.54 37.7,-21.61 -90.9,226.8 -92.1,-121.41 38.1,-21.79 -1.2,-315.12"
         style="fill:#582219;fill-opacity:1;fill-rule:nonzero;stroke:none"
         id="path58" /><path
         d="m 13422.6,3232.11 107.3,-62.11 0.7,314.88 37.9,-21.79 -90.9,226.71 -92.1,-121.21 38.1,-21.99 -1,-314.49"
         style="fill:#582219;fill-opacity:1;fill-rule:nonzero;stroke:none"
         id="path60" /><path
         d="m 12635.4,3933.09 c -0.3,-85.08 55.1,-187.58 126.8,-238.87 l -7.5,-179.02 -68,39.1 -21.4,-17.19 228,-131.52 -21.4,41.79 -67.8,39.03 -6.6,187.38 c 71.9,-31.17 127.5,6.72 127.8,91.99 l 0.6,223.71 -0.1,1.8 -40.6,23.59 -25.3,-28.08 31.5,-65.08 -24.1,-1.52 23.9,-62.39 -54.8,81.68 9.7,2.81 -61.1,130.2 -14.1,8.2 -135.3,-77.42 -0.2,-70.19"
         style="fill:#582219;fill-opacity:1;fill-rule:nonzero;stroke:none"
         id="path62" /><path
         d="m 12081.3,12370.9 561.6,321.4 -0.3,0.4 -1132.4,-647.6 0.5,-0.4 570.2,326.2 h 0.4"
         style="fill:#f1ddb8;fill-opacity:1;fill-rule:nonzero;stroke:none"
         id="path64" /><path
         d="m 15726,10285.8 0.3,0.1 572.6,327.5 -3655.7,2078.7 -0.3,0.2 -561.6,-321.4 3644.7,-2085.1"
         style="fill:#f0c8a6;fill-opacity:1;fill-rule:nonzero;stroke:none"
         id="path66" /><path
         d="m 15166.8,9966.13 559.4,319.77 -3644.9,2085.1 h -0.4 l -570.1,-326.3 h 0.1 l 3655.9,-2078.57"
         style="fill:#f1d3b5;fill-opacity:1;fill-rule:nonzero;stroke:none"
         id="path68" /><path
         d="M 4592.81,6562.89 8221.99,8638.4 6245.16,8346.8 6169.69,8335.59 3252.73,6667.7 l -712.22,-407.31 2052.3,302.5"
         style="fill:#e17a52;fill-opacity:1;fill-rule:nonzero;stroke:none"
         id="path70" /><path
         d="m 4592.81,6562.89 -2052.3,-302.5 v -98.67 l 1269.26,187.5 641.99,94.69 141.05,118.98"
         style="fill:#eeba8d;fill-opacity:1;fill-rule:nonzero;stroke:none"
         id="path72" /><path
         d="m 8324.57,8623.09 -101.17,15 3627.4,-2074.3 h 0.3 l 0.3,-0.39 1.1,-0.7 2052.4,-303.21 -3629,2075.71 -230.7,34.02 -374.5,55.19 -1346.13,198.68"
         style="fill:#e17a52;fill-opacity:1;fill-rule:nonzero;stroke:none"
         id="path74" /><path
         d="m 11852.5,6562.3 140.6,-118.59 1911.8,-282.42 v 98.2 l -2052.4,303.21 v -0.4"
         style="fill:#eeba8d;fill-opacity:1;fill-rule:nonzero;stroke:none"
         id="path76" /><path
         d="m 11850.3,6563.4 0.5,0.39 -3627.4,2074.3 v -0.39 l 3626.9,-2074.3"
         style="fill:#e2aa77;fill-opacity:1;fill-rule:nonzero;stroke:none"
         id="path78" /><path
         d="m 11852.5,6562.7 -1.1,0.7 1.1,-1.1 z"
         style="fill:#e2aa77;fill-opacity:1;fill-rule:nonzero;stroke:none"
         id="path80" /><path
         d="m 7927.27,942.5 -491.53,284.1 0.08,79.49 491.76,-283.47 z m -627.47,912.81 -0.42,-210.19 c -0.32,-80.43 -52.66,-116.14 -119.97,-86.6 l 5.9,-175.9 63.75,-37.11 20.16,-39.42 -214.26,123.91 20.16,15.9 63.79,-36.68 6.99,168.28 c -67.19,48.52 -119.22,144.69 -119.06,224.41 l 0.78,212.19 140.11,-80.9 57.31,-122.11 -9.22,-3.2 51.48,-76.48 -22.46,58.79 22.7,1.6 -29.73,60.58 23.79,26.41 38.2,-21.99 z m 247.86,-125.51 85.58,-213.32 -35.54,20.82 -0.98,-295.82 -100.47,58.01 0.66,295.9 -35.62,20.7 z m 270.54,-156.09 85.55,-213.12 -35.59,20.31 -0.66,-296.02 -100.7,58.21 0.78,295.82 -35.59,20.7 z M 5666.25,2063.2 4988.91,2452.19 V 3025 l 677.34,-389.69 z m 503.44,588.99 -1576.88,902.03 V 2412.11 L 8221.99,336.723 V 4389.1 L 6169.69,2652.19"
         style="fill:#e2aa77;fill-opacity:1;fill-rule:nonzero;stroke:none"
         id="path82" /><path
         d="M 8208.79,4600.39 7049.96,5262.7 4776.8,6562.89 8208.79,8525.9 11640.8,6562.89 9367.7,5262.7 Z m 3641.51,1963.01 -3626.9,2074.3 -1.41,0.7 L 4592.81,6562.89 8221.99,4487.81 v 0.47 L 11850.3,6563.4"
         style="fill:#e2aa77;fill-opacity:1;fill-rule:nonzero;stroke:none"
         id="path84" /><path
         d="M 8208.79,8525.9 4776.8,6562.89 7049.96,5262.7 8208.79,5925.51 V 8525.9"
         style="fill:#e17a52;fill-opacity:1;fill-rule:nonzero;stroke:none"
         id="path86" /><path
         d="M 8208.79,5925.51 7049.96,5262.7 8208.79,4600.39 9367.7,5262.7 8208.79,5925.51"
         style="fill:#e2aa77;fill-opacity:1;fill-rule:nonzero;stroke:none"
         id="path88" /><path
         d="M 10274.3,2652.81 8221.99,4389.69 V 336.723 L 11851.1,2412.11 v 1142.58 l -1576.8,-901.88"
         style="fill:#e1955c;fill-opacity:1;fill-rule:nonzero;stroke:none"
         id="path90" /><path
         d="M 8208.79,5925.51 9367.7,5262.7 11640.8,6562.89 8208.79,8525.9 V 5925.51"
         style="fill:#ce7650;fill-opacity:1;fill-rule:nonzero;stroke:none"
         id="path92" /><path
         d="M 8221.99,4487.81 4592.81,6562.89 4451.76,6443.91 4126.05,6168.2 2540.51,4826.21 6169.69,2750.78 8221.99,4487.81"
         style="fill:#e17a52;fill-opacity:1;fill-rule:nonzero;stroke:none"
         id="path94" /><path
         d="m 6169.69,2750.78 v -98.59 l 2052.3,1736.91 v 98.71 L 6169.69,2750.78"
         style="fill:#ce7650;fill-opacity:1;fill-rule:nonzero;stroke:none"
         id="path96" /><path
         d="M 6169.69,2750.78 2540.51,4826.21 v -98.4 l 2052.3,-1173.59 1576.88,-902.03 v 98.59"
         style="fill:#eeba8d;fill-opacity:1;fill-rule:nonzero;stroke:none"
         id="path98" /><path
         d="m 11851.4,6563.4 -0.3,0.39 h -0.3 l -0.5,-0.39 -3628.31,-2075.12 2052.31,-1736.99 3629,2075.62 -1910.2,1616.8 -140.6,118.59 -1.1,1.1"
         style="fill:#e17a52;fill-opacity:1;fill-rule:nonzero;stroke:none"
         id="path100" /><path
         d="m 8221.99,4488.28 v -98.59 L 10274.3,2652.81 v 98.48 L 8221.99,4488.28"
         style="fill:#ce7650;fill-opacity:1;fill-rule:nonzero;stroke:none"
         id="path102" /><path
         d="m 10274.3,2751.29 v -98.48 l 1576.8,901.88 784.5,448.59 135.3,77.42 1132.4,647.5 v 98.71 l -3629,-2075.62"
         style="fill:#eeba8d;fill-opacity:1;fill-rule:nonzero;stroke:none"
         id="path104" /><path
         d="m 7435.74,1226.6 491.53,-284.1 0.31,80.12 -491.76,283.47 -0.08,-79.49"
         style="fill:#582219;fill-opacity:1;fill-rule:nonzero;stroke:none"
         id="path106" /><path
         d="m 7496.25,1299.49 100.47,-58.01 0.98,295.82 35.54,-20.82 -85.58,213.32 -86.37,-113.71 35.62,-20.7 -0.66,-295.9"
         style="fill:#582219;fill-opacity:1;fill-rule:nonzero;stroke:none"
         id="path108" /><path
         d="m 7766.8,1143.09 100.7,-58.21 0.66,296.02 35.59,-20.31 -85.55,213.12 -86.21,-114.1 35.59,-20.7 -0.78,-295.82"
         style="fill:#582219;fill-opacity:1;fill-rule:nonzero;stroke:none"
         id="path110" /><path
         d="m 7237.81,1852.38 29.73,-60.58 -22.7,-1.6 22.46,-58.79 -51.48,76.48 9.22,3.2 -57.31,122.11 -140.11,80.9 -0.78,-212.19 c -0.16,-79.72 51.87,-175.89 119.06,-224.41 l -6.99,-168.28 -63.79,36.68 -20.16,-15.9 214.26,-123.91 -20.16,39.42 -63.75,37.11 -5.9,175.9 c 67.31,-29.54 119.65,6.17 119.97,86.6 l 0.42,210.19 v 1.49 l -38.2,21.99 -23.79,-26.41"
         style="fill:#582219;fill-opacity:1;fill-rule:nonzero;stroke:none"
         id="path112" /><path
         d="m 5030.86,2590.9 593.28,-341.29 v -57.81 l -593.28,341.6 z m 0,122.81 593.28,-341.41 v -57.5 l -593.28,341.22 z m 0,138.09 593.28,-341.68 v -57.42 l -593.28,341.4 z m -41.95,-399.61 677.34,-388.99 v 572.11 L 4988.91,3025 v -572.81"
         style="fill:#eeba8d;fill-opacity:1;fill-rule:nonzero;stroke:none"
         id="path114" /><path
         d="m 5624.14,2249.61 -593.28,341.29 v -57.5 l 593.28,-341.6 v 57.81"
         style="fill:#ecac7b;fill-opacity:1;fill-rule:nonzero;stroke:none"
         id="path116" /><path
         d="m 5624.14,2372.3 -593.28,341.41 v -57.69 l 593.28,-341.22 v 57.5"
         style="fill:#ecac7b;fill-opacity:1;fill-rule:nonzero;stroke:none"
         id="path118" /><path
         d="m 5624.14,2510.12 -593.28,341.68 v -57.7 l 593.28,-341.4 v 57.42"
         style="fill:#ecac7b;fill-opacity:1;fill-rule:nonzero;stroke:none"
         id="path120" /><path
         d="m 2368.44,15481 81.48,-350.6 350.7,-81.6 -350.7,-81.5 -81.48,-350.6 -81.49,350.6 -350.66,81.5 350.66,81.6 81.49,350.6"
         style="fill:#ffffff;fill-opacity:1;fill-rule:nonzero;stroke:none"
         id="path122" /><path
         d="m 16369.4,11730 35.9,-154.4 154.6,-36 -154.6,-35.8 -35.9,-154.5 -35.8,154.5 -154.6,35.8 154.6,36 35.8,154.4"
         style="fill:#ffffff;fill-opacity:1;fill-rule:nonzero;stroke:none"
         id="path124" /><path
         d="m 18503.8,6352.11 36,-154.49 154.5,-35.9 -154.5,-35.9 -36,-154.41 -35.8,154.41 -154.6,35.9 154.6,35.9 35.8,154.49"
         style="fill:#ffffff;fill-opacity:1;fill-rule:nonzero;stroke:none"
         id="path126" /><path
         d="m 15268.4,13571.8 44.4,-191.2 191.5,-44.6 -191.5,-44.4 -44.4,-191.4 -44.4,191.4 -191.3,44.4 191.3,44.6 44.4,191.2"
         style="fill:#ffffff;fill-opacity:1;fill-rule:nonzero;stroke:none"
         id="path128" /><path
         d="m 239.648,8874.22 44.411,-191.33 191.41,-44.49 -191.41,-44.49 -44.411,-191.41 -44.449,191.41 -191.36697,44.49 191.36697,44.49 44.449,191.33"
         style="fill:#ffffff;fill-opacity:1;fill-rule:nonzero;stroke:none"
         id="path130" /><path
         d="m 10717.3,14452.3 33.1,-142.4 142.4,-33.2 -142.4,-33.1 -33.1,-142.6 -33.1,142.6 -142.6,33.1 142.6,33.2 33.1,142.4"
         style="fill:#ffffff;fill-opacity:1;fill-rule:nonzero;stroke:none"
         id="path132" /><path
         d="m 12459.8,16109.7 33.2,-142.5 142.5,-33.1 -142.5,-33.1 -33.2,-142.5 -33.1,142.5 -142.5,33.1 142.5,33.1 33.1,142.5"
         style="fill:#ffffff;fill-opacity:1;fill-rule:nonzero;stroke:none"
         id="path134" /><path
         d="m 1196.68,4253.79 44.41,-191.17 191.37,-44.53 -191.37,-44.57 -44.41,-191.33 -44.41,191.33 -191.411,44.57 191.411,44.53 44.41,191.17"
         style="fill:#ffffff;fill-opacity:1;fill-rule:nonzero;stroke:none"
         id="path136" /></g></g></svg>
